<svg id="Capa_1" enable-background="new 0 0 512 512" height="512" viewBox="0 0 512 512" width="512" xmlns="http://www.w3.org/2000/svg"><g><g><path d="m144.882 75.181-13.417 20.125c-4.425 6.637-6.786 14.436-6.786 22.413v311.916c0 7.977 2.361 15.776 6.786 22.414l13.417 20.125h222.236l13.417-20.125c4.425-6.637 6.786-14.436 6.786-22.414v-311.915c0-7.977-2.361-15.776-6.786-22.413l-13.417-20.125h-222.236z" fill="#ffe07d"/></g><g><path d="m380.535 95.306-13.417-20.126h-28.285l13.417 20.126c4.425 6.637 6.786 14.436 6.786 22.413v311.916c0 7.977-2.361 15.776-6.786 22.413l-13.417 20.126h28.285l13.417-20.126c4.425-6.637 6.786-14.436 6.786-22.413v-311.915c0-7.977-2.361-15.776-6.786-22.414z" fill="#ffd064"/></g><g><path d="m124.679 42.856h262.642v32.325h-262.642z" fill="#d8e2f1"/></g><g><path d="m165.085 369.138h181.829v32.325h-181.829z" fill="#845caf"/></g><g><path d="m361.057 42.856h26.264v32.325h-26.264z" fill="#b9cbea"/></g><g><path d="m353.986 42.856h-64.65v-8.826c0-9.57 6.714-17.827 16.083-19.779l30.927-6.443c.983-.205 1.984-.308 2.988-.308 8.092 0 14.652 6.56 14.652 14.652z" fill="#98b9d3"/></g><g><path d="m124.679 472.175h262.642v32.325h-262.642z" fill="#d8e2f1"/></g><g><path d="m361.057 472.175h26.264v32.325h-26.264z" fill="#b9cbea"/></g><g><g><g><path d="m256 138.821s-23.981 28.73-23.981 68.279c0 6.319.617 12.443 1.646 18.279-2.379-3.108-4.989-6.146-7.879-9.036-25.566-25.566-60.214-28.061-60.214-28.061s2.496 34.648 28.061 60.214c4.864 4.864 10.135 8.967 15.481 12.428-1.739-.13-3.502-.199-5.287-.199-28.814 0-49.746 17.986-49.746 17.986s20.932 17.986 49.746 17.986c3.405 0 6.731-.258 9.954-.701-6.537 12.816-3.745 28.679-3.745 28.679s19.979 1.004 32.974-11.99c6.901-6.901 10.991-16.23 12.99-21.982 1.998 5.753 6.088 15.081 12.99 21.982 12.995 12.995 32.974 11.99 32.974 11.99s2.793-15.863-3.745-28.679c3.223.443 6.549.701 9.954.701 28.814 0 49.746-17.986 49.746-17.986s-20.932-17.986-49.746-17.986c-1.785 0-3.548.07-5.287.199 5.346-3.462 10.617-7.564 15.481-12.428 25.566-25.566 28.061-60.214 28.061-60.214s-34.648 2.496-60.214 28.061c-2.89 2.89-5.5 5.928-7.879 9.036 1.029-5.836 1.646-11.961 1.646-18.279 0-39.549-23.981-68.279-23.981-68.279z" fill="#b3e59f"/></g></g></g><g><path d="m387.32 170.25c-4.143 0-7.5 3.358-7.5 7.5v251.89c0 6.516-1.912 12.826-5.531 18.25l-11.184 16.78h-214.211l-11.185-16.783c-3.617-5.421-5.529-11.73-5.529-18.247v-81.14c0-4.142-3.358-7.5-7.5-7.5s-7.5 3.358-7.5 7.5v81.14c0 9.49 2.784 18.678 8.049 26.569l5.639 8.46h-6.188c-4.142 0-7.5 3.358-7.5 7.5v32.33c0 4.142 3.358 7.5 7.5 7.5h204.73c4.143 0 7.5-3.358 7.5-7.5s-3.357-7.5-7.5-7.5h-197.23v-17.33h247.64v17.331h-15.41c-4.143 0-7.5 3.358-7.5 7.5s3.357 7.5 7.5 7.5h22.91c4.143 0 7.5-3.358 7.5-7.5v-32.33c0-4.142-3.357-7.5-7.5-7.5h-6.188l5.637-8.458c5.267-7.895 8.051-17.083 8.051-26.572v-251.89c0-4.142-3.357-7.5-7.5-7.5z"/><path d="m165.085 361.638c-4.142 0-7.5 3.358-7.5 7.5v32.325c0 4.142 3.358 7.5 7.5 7.5h181.83c4.143 0 7.5-3.358 7.5-7.5v-32.325c0-4.142-3.357-7.5-7.5-7.5zm174.33 32.325h-166.83v-17.325h166.83z"/><path d="m394.821 75.181v-32.326c0-4.142-3.357-7.5-7.5-7.5h-25.836v-13.203c0-12.214-9.937-22.152-22.152-22.152-1.516 0-3.036.157-4.518.466l-30.927 6.443c-12.779 2.662-22.054 14.068-22.054 27.121v1.326h-157.155c-4.142 0-7.5 3.358-7.5 7.5v32.325c0 4.142 3.358 7.5 7.5 7.5h6.193l-5.637 8.462c-5.269 7.885-8.054 17.076-8.054 26.577v195.78c0 4.142 3.358 7.5 7.5 7.5s7.5-3.358 7.5-7.5v-195.78c0-6.525 1.911-12.833 5.532-18.252l11.183-16.788h214.209l11.189 16.796c3.615 5.411 5.526 11.72 5.526 18.244v25.03c0 4.142 3.357 7.5 7.5 7.5s7.5-3.358 7.5-7.5v-25.03c0-9.501-2.785-18.691-8.048-26.568l-5.643-8.471h6.192c4.143 0 7.5-3.358 7.5-7.5zm-97.986-41.151c0-5.985 4.253-11.216 10.112-12.437l30.929-6.443c.478-.1.968-.15 1.457-.15 3.943 0 7.152 3.208 7.152 7.152v13.203h-49.65zm-164.656 16.325h247.643v17.325h-247.643z"/><path d="m146.581 278.709c0 2.186.954 4.264 2.612 5.688.934.802 23.069 19.52 53.946 19.794-2.283 11.219-.588 21.223-.489 21.781.606 3.446 3.515 6.015 7.01 6.19.952.046 23.479.998 38.653-14.178.065-.065.122-.135.187-.2v1.567c0 3.393-1.321 6.583-3.72 8.982l-2.164 2.164c-2.929 2.928-2.93 7.677-.001 10.606 1.464 1.465 3.384 2.197 5.304 2.197 1.919 0 3.838-.732 5.303-2.196l2.165-2.164c5.232-5.232 8.114-12.189 8.114-19.589v-1.567c.064.065.122.135.187.2 13.234 13.234 32.061 14.205 37.29 14.205.767 0 1.241-.021 1.363-.027 3.494-.176 6.402-2.744 7.01-6.19.098-.558 1.794-10.562-.489-21.781 30.878-.274 53.013-18.992 53.946-19.794 1.658-1.425 2.612-3.502 2.612-5.688 0-2.187-.954-4.264-2.612-5.688-.785-.675-16.578-14.029-39.955-18.415.274-.268.548-.538.817-.808 27.23-27.229 30.129-63.449 30.239-64.978.156-2.171-.638-4.303-2.177-5.842s-3.658-2.34-5.843-2.177c-1.408.101-32.282 2.574-58.428 24.272-.775-40.729-24.67-69.82-25.703-71.058-1.425-1.707-3.534-2.694-5.758-2.694s-4.333.987-5.758 2.694c-1.033 1.238-24.928 30.328-25.704 71.058-26.146-21.699-57.019-24.17-58.427-24.271-2.179-.158-4.304.638-5.842 2.177-1.539 1.539-2.334 3.671-2.177 5.842.11 1.528 3.009 37.749 30.238 64.978.271.271.543.54.818.808-23.377 4.386-39.169 17.739-39.955 18.415-1.658 1.424-2.612 3.501-2.612 5.687zm57.246-10.485c1.547 0 3.139.06 4.73.179 3.423.246 6.572-1.841 7.666-5.089 1.092-3.248-.156-6.824-3.033-8.686-5.304-3.434-10.1-7.282-14.254-11.436-15.327-15.327-21.692-34.504-24.252-45.82 11.291 2.535 30.396 8.873 45.798 24.275 2.489 2.49 4.921 5.279 7.227 8.292 2.101 2.745 5.807 3.698 8.972 2.308 3.166-1.39 4.97-4.764 4.37-8.168-1.017-5.766-1.532-11.478-1.532-16.978 0-24.253 9.888-44.386 16.481-55.112 6.593 10.727 16.48 30.859 16.48 55.112 0 5.502-.516 11.214-1.531 16.977-.601 3.405 1.204 6.778 4.368 8.169 3.165 1.39 6.87.438 8.973-2.307 2.31-3.016 4.741-5.806 7.229-8.292 15.312-15.312 34.469-21.681 45.79-24.246-2.566 11.326-8.935 30.48-24.246 45.791-4.154 4.155-8.949 8.002-14.253 11.436-2.877 1.863-4.125 5.438-3.032 8.687 1.092 3.249 4.243 5.338 7.665 5.089 1.592-.119 3.183-.179 4.73-.179 15.395 0 28.469 5.826 36.463 10.485-7.998 4.662-21.072 10.486-36.463 10.486-2.878 0-5.884-.212-8.934-.631-2.771-.381-5.517.809-7.134 3.086-1.618 2.276-1.837 5.264-.567 7.752 2.932 5.75 3.549 12.481 3.516 17.345-5.864-.811-14.475-3.082-20.761-9.367-5.599-5.601-9.051-13.264-10.793-17.987v-1.496l12.956-12.956c2.929-2.929 2.929-7.678 0-10.606-2.93-2.929-7.678-2.929-10.607 0l-2.349 2.349v-6.137c0-4.142-3.357-7.5-7.5-7.5-4.142 0-7.5 3.358-7.5 7.5v6.137l-2.349-2.349c-2.929-2.929-7.678-2.929-10.606 0-2.929 2.929-2.929 7.678 0 10.606l12.956 12.956v1.497c-1.743 4.724-5.195 12.388-10.793 17.986-6.286 6.286-14.896 8.556-20.754 9.368-.031-4.871.586-11.613 3.51-17.345 1.269-2.488 1.05-5.476-.568-7.752-1.418-1.996-3.706-3.155-6.112-3.155-.339 0-.68.023-1.022.07-3.049.419-6.055.631-8.933.631-15.394 0-28.469-5.826-36.463-10.485 7.996-4.666 21.071-10.49 36.461-10.49z"/></g></g></svg>