<?xml version="1.0"?>
<svg xmlns="http://www.w3.org/2000/svg" viewBox="0 0 64 64" width="512" height="512"><g id="Filled_outline" data-name="Filled outline"><path d="M43,19a7,7,0,0,0-6.763,5.219,4.91,4.91,0,0,0-5.265-.781,7.994,7.994,0,0,0-15.92-.323A5,5,0,1,0,14,33H43a7,7,0,0,0,0-14Z" style="fill:#67c086"/><polygon points="57 57 7 57 3 39 61 39 57 57" style="fill:#aeddd0"/><rect x="3" y="33" width="58" height="6" style="fill:#3e8051"/><path d="M27,33H18L4,19a2.715,2.715,0,0,1,0-4H4a2.715,2.715,0,0,1,4,0Z" style="fill:#3e5496"/><rect x="20" y="20" width="2" height="2" style="fill:#fff"/><rect x="24" y="21" width="2" height="2" style="fill:#fff"/><rect x="45" y="52" width="12" height="2" style="fill:#fff"/><rect x="41" y="52" width="2" height="2" style="fill:#fff"/><rect x="4" y="42" width="5" height="2" style="fill:#fff"/><path d="M54.828,25V23.365a4.327,4.327,0,0,0-4-4.365,4.328,4.328,0,0,0-4,4.365V25c-1.505-.778-3.737-1.262-5,0a4.427,4.427,0,0,0,0,6l2,2h14l2-2a4.425,4.425,0,0,0,0-6C58.566,23.738,56.334,24.222,54.828,25Z" style="fill:#e4544f"/><path d="M26,26a7,7,0,0,0-7,7H33A7,7,0,0,0,26,26Z" style="fill:#d0bafa"/><path d="M34,28a5,5,0,0,0-5,5H39A5,5,0,0,0,34,28Z" style="fill:#fcf05a"/><circle cx="35" cy="14" r="2" style="fill:#67c086"/><circle cx="50" cy="10" r="3" style="fill:#67c086"/><path d="M61,32h-.757l.293-.293a5.452,5.452,0,0,0,0-7.414,4.65,4.65,0,0,0-4.707-.768v-.16a5.329,5.329,0,0,0-5-5.365,4.78,4.78,0,0,0-3.3,1.419,7.964,7.964,0,0,0-11.791,3.256,5.916,5.916,0,0,0-3.942-.55A8.984,8.984,0,0,0,14.88,20.144L8.707,14.293a3.794,3.794,0,0,0-5.414,0,3.7,3.7,0,0,0,0,5.414l5.434,5.434A5.973,5.973,0,0,0,9.54,32H3a1,1,0,0,0-1,1v6a1.945,1.945,0,0,0,.024.217l4,18A1,1,0,0,0,7,58H57a1,1,0,0,0,.976-.783l4-18A1.945,1.945,0,0,0,62,39V33A1,1,0,0,0,61,32ZM50,20.165V25h2V20.3a3.535,3.535,0,0,1,1.829,3.061v3.277l1.459-.753c1.274-.66,3.018-1,3.834-.182a3.417,3.417,0,0,1,0,4.586L57.415,32H44.243l-1.707-1.707a3.415,3.415,0,0,1,0-4.586c.814-.815,2.558-.478,3.834.182l1.459.753V23.365A3.477,3.477,0,0,1,50,20.165ZM23,17a7.016,7.016,0,0,1,6.973,6.51,1,1,0,0,0,1.409.842,3.955,3.955,0,0,1,4.21.628.991.991,0,0,0,.648.24,1,1,0,0,0,.968-.745A6,6,0,0,1,43,20a5.841,5.841,0,0,1,3.358,1.057,5.413,5.413,0,0,0-.529,2.308v.16a4.645,4.645,0,0,0-4.707.768,5.45,5.45,0,0,0,0,7.414l.293.293H39.91a5.985,5.985,0,0,0-8.166-4.556,7.956,7.956,0,0,0-10.255-1.037l-5.04-4.776A6.968,6.968,0,0,1,23,17Zm7.126,15a4,4,0,0,1,7.748,0ZM20.083,32a5.958,5.958,0,0,1,2-3.529A5.857,5.857,0,0,1,26,27a5.919,5.919,0,0,1,4,1.541A5.994,5.994,0,0,0,28.09,32ZM4.707,15.707a1.748,1.748,0,0,1,2.605.019L19.99,27.742A7.934,7.934,0,0,0,18.117,31.7L4.707,18.293A1.714,1.714,0,0,1,4.707,15.707ZM10,28a3.979,3.979,0,0,1,.237-1.349L15.586,32H14A4,4,0,0,1,10,28ZM4,34H60v4H4ZM57,52.39V52H45v2H56.642L56.2,56H7.8L5.135,44H9V42H4.691l-.444-2H59.753Z"/><rect x="20" y="20" width="2" height="2"/><rect x="24" y="21" width="2" height="2"/><path d="M32,14a3,3,0,1,0,3-3A3,3,0,0,0,32,14Zm4,0a1,1,0,1,1-1-1A1,1,0,0,1,36,14Z"/><path d="M50,14a4,4,0,1,0-4-4A4,4,0,0,0,50,14Zm0-6a2,2,0,1,1-2,2A2,2,0,0,1,50,8Z"/><rect x="41" y="52" width="2" height="2"/></g></svg>
